<?xml version="1.0" standalone="no"?>
<!DOCTYPE svg PUBLIC "-//W3C//DTD SVG 20010904//EN"
 "http://www.w3.org/TR/2001/REC-SVG-20010904/DTD/svg10.dtd">
<svg version="1.0" xmlns="http://www.w3.org/2000/svg" viewBox="-24.198851 0 449.373413 449.373413"
 preserveAspectRatio="xMidYMid meet"><style>g{fill:#111}@media (prefers-color-scheme: dark){g{fill:#f4f6f8}}</style>
<metadata>
Created by potrace 1.16, written by Peter Selinger 2001-2019
</metadata>
<g transform="translate(-321.224288,733.188646) scale(0.100000,-0.100000)"
fill="#000000" stroke="none">
<path d="M7119 7233 l-24 -28 28 24 c15 14 27 26 27 28 0 8 -8 1 -31 -24z"/>
<path d="M6954 7085 c-71 -69 -122 -125 -114 -125 13 0 13 -1 0 -10 -8 -5 -23
-7 -34 -4 -13 4 -16 3 -11 -6 5 -8 3 -11 -6 -8 -8 3 -32 -11 -53 -31 l-39 -36
28 38 c16 21 48 59 71 85 43 46 52 72 14 37 -11 -10 -20 -14 -20 -9 0 5 -7 -2
-16 -14 -15 -22 -41 -32 -28 -10 4 7 3 8 -4 4 -6 -4 -9 -13 -6 -21 4 -8 -3
-15 -18 -17 -16 -2 -23 -10 -23 -25 0 -12 -3 -25 -7 -29 -5 -4 -8 3 -8 15 0
13 -4 19 -10 16 -6 -4 -9 -12 -8 -19 2 -7 -22 -36 -53 -64 -61 -56 -87 -69
-48 -24 13 15 -7 -2 -44 -38 -37 -35 -67 -70 -67 -78 0 -7 -4 -11 -9 -7 -6 3
-16 -2 -23 -11 -21 -26 -232 -237 -259 -259 -14 -11 -10 -3 11 20 19 22 -25
-18 -98 -90 -72 -71 -132 -132 -132 -135 0 -2 43 38 96 90 53 52 88 84 78 70
-23 -30 -300 -300 -290 -282 15 26 -11 10 -49 -29 -22 -23 -62 -59 -90 -81
-27 -22 -93 -81 -144 -131 -52 -51 -87 -79 -77 -63 30 47 -3 25 -42 -29 -27
-38 -30 -45 -11 -27 14 12 29 22 33 22 10 0 -37 -59 -48 -59 -5 -1 -19 -12
-32 -26 -13 -14 -28 -25 -34 -25 -6 0 -13 -13 -16 -30 -4 -16 -13 -30 -20 -30
-13 0 -18 -12 -15 -32 0 -5 -3 -8 -9 -8 -5 0 -10 -7 -10 -16 0 -21 -88 -129
-175 -214 -59 -58 -67 -63 -76 -47 -16 28 -70 87 -80 87 -5 0 9 -23 31 -52 21
-29 37 -54 35 -57 -5 -5 -36 33 -75 90 -14 21 -46 64 -71 96 -25 32 -79 108
-119 168 -41 61 -108 155 -149 210 -41 55 -95 134 -120 175 -63 102 -124 190
-134 190 -5 0 0 -12 11 -27 10 -16 29 -46 42 -68 23 -39 23 -40 2 -21 -14 12
-22 15 -22 6 0 -7 -7 -10 -15 -6 -10 4 -21 -7 -36 -35 -11 -22 -34 -48 -51
-57 -18 -9 -41 -27 -53 -39 -12 -13 -29 -23 -36 -23 -11 0 -11 -2 1 -10 13 -8
13 -10 -2 -10 -9 0 -20 5 -23 10 -4 6 -10 8 -14 5 -5 -2 -22 0 -40 5 -34 10
-38 4 -16 -26 28 -38 14 -37 -21 2 l-35 39 31 -45 c17 -25 47 -65 66 -89 22
-27 34 -52 31 -63 -3 -10 0 -21 7 -26 20 -12 120 -143 203 -265 43 -63 136
-195 206 -292 l128 -177 -58 -62 c-32 -35 -93 -104 -136 -154 -43 -51 -82 -90
-87 -87 -5 3 -12 0 -16 -6 -5 -8 -3 -9 7 -4 15 9 -69 -86 -108 -123 -24 -22
-26 -22 -44 -6 -17 16 -19 16 -19 1 0 -10 7 -17 15 -17 23 0 19 -8 -45 -80
-40 -45 -62 -79 -65 -100 -4 -38 -102 -168 -162 -217 -24 -20 -41 -39 -38 -43
3 -5 0 -12 -6 -16 -8 -5 -9 -3 -4 7 6 11 5 12 -5 2 -15 -14 -22 -55 -8 -47 5
4 7 13 3 23 -5 13 -4 14 7 3 11 -11 8 -18 -17 -39 -16 -15 -29 -31 -27 -37 2
-6 0 -8 -4 -3 -4 4 -17 -1 -28 -10 -20 -18 -20 -17 -6 2 8 11 17 22 20 25 3 3
11 18 18 33 17 39 -4 24 -23 -17 -9 -18 -37 -57 -64 -87 -26 -30 -69 -84 -95
-121 -26 -38 -58 -76 -70 -85 -12 -10 -30 -30 -40 -45 -10 -15 -22 -25 -27
-22 -5 3 -6 -1 -3 -9 3 -9 -19 -39 -55 -75 -81 -82 -100 -122 -25 -52 32 30
64 62 71 70 11 13 12 13 13 0 0 -8 -16 -32 -35 -53 -19 -21 -35 -42 -35 -47 0
-5 -7 -6 -17 -3 -10 4 -14 2 -10 -4 4 -6 0 -16 -8 -23 -8 -7 -13 -16 -10 -20
3 -4 -2 -10 -10 -14 -15 -5 -21 -36 -7 -36 4 0 18 17 32 36 76 108 264 304
292 304 6 0 4 -6 -7 -13 -12 -9 -15 -19 -10 -28 5 -8 5 -11 1 -7 -10 9 -46
-23 -39 -35 3 -5 -4 -15 -16 -24 -12 -8 -20 -20 -19 -26 1 -7 -24 -38 -57 -69
-33 -32 -57 -58 -53 -58 3 0 22 16 41 35 22 22 37 31 39 23 3 -7 -13 -30 -34
-51 -47 -47 -48 -56 -5 -26 20 15 27 17 19 7 -8 -10 -11 -22 -7 -27 3 -6 0 -8
-8 -5 -8 3 -18 0 -23 -7 -4 -7 -3 -10 2 -6 5 3 10 -2 10 -12 0 -10 -6 -18 -13
-18 -7 0 -10 3 -8 7 2 3 0 12 -4 19 -6 9 -11 10 -15 2 -4 -6 -2 -11 4 -11 6 0
9 -4 5 -9 -3 -5 0 -13 5 -16 8 -5 5 -14 -7 -28 -12 -14 -7 -12 19 7 21 15 40
36 43 47 4 11 11 17 16 13 5 -3 6 -11 2 -17 -4 -7 -8 -18 -10 -26 -1 -8 -19
-31 -39 -52 -21 -21 -35 -41 -32 -45 6 -6 70 55 176 170 35 37 59 59 53 49 -5
-10 -23 -32 -39 -50 -18 -19 -25 -34 -18 -36 6 -3 -1 -10 -16 -16 -16 -6 -28
-13 -28 -16 0 -4 5 -3 12 1 8 5 9 2 5 -9 -3 -10 -2 -17 4 -17 5 0 7 -12 4 -27
-6 -25 -5 -26 6 -8 6 11 19 26 27 33 20 15 29 67 10 56 -7 -4 -5 1 4 12 15 18
18 23 18 40 0 4 7 1 15 -6 8 -7 13 -16 10 -20 -3 -5 0 -12 6 -16 7 -4 9 -3 6
3 -8 12 42 49 60 45 7 -2 24 15 39 38 15 22 29 40 31 40 7 0 -24 -47 -62 -95
-42 -53 -54 -75 -33 -58 8 7 19 9 23 5 5 -4 5 -1 1 6 -4 7 0 15 10 19 10 4 31
22 47 40 17 19 36 32 43 29 7 -3 18 2 24 10 7 8 10 14 7 14 -3 0 7 12 22 28
15 15 32 34 37 42 5 8 22 26 38 40 24 20 22 16 -11 -25 -22 -27 -50 -68 -62
-90 l-21 -40 22 28 c13 15 53 58 91 95 37 36 65 72 63 78 -5 14 21 40 31 31 3
-4 -2 -10 -11 -13 -13 -5 -14 -9 -5 -14 12 -8 -27 -64 -94 -135 -34 -36 -100
-143 -100 -161 0 -7 -4 -11 -8 -8 -7 4 -44 -41 -65 -81 -6 -12 -8 -29 -4 -40
6 -16 8 -14 13 12 4 21 12 30 23 29 9 0 21 8 28 19 6 10 20 27 31 38 11 11 14
16 5 12 -10 -4 -9 -2 3 8 20 16 23 31 5 22 -7 -4 -3 2 9 12 12 10 47 50 77 88
91 114 172 215 249 307 39 47 106 128 147 178 41 51 109 129 150 174 41 45
101 112 133 149 34 39 65 66 75 65 12 -2 16 6 18 35 2 20 -1 37 -5 37 -5 0
-35 -27 -68 -61 -49 -51 -61 -58 -71 -46 -10 11 -1 26 44 75 31 34 60 59 65
56 5 -3 8 0 7 8 -2 7 2 12 9 11 7 -2 10 3 7 10 -3 8 20 42 51 76 30 34 55 64
55 68 0 3 -28 37 -62 76 -35 39 -58 68 -52 66 10 -3 103 -106 198 -219 19 -23
20 -23 1 -10 -11 8 3 -13 30 -47 28 -34 56 -62 63 -62 7 -1 11 -5 8 -9 -3 -5
71 -85 164 -178 94 -93 168 -174 165 -181 -2 -7 2 -10 9 -7 8 3 17 0 22 -7 5
-8 3 -10 -6 -4 -8 5 -11 3 -8 -6 2 -7 20 -22 39 -32 52 -29 111 -89 96 -99
-11 -7 -8 -9 19 -12 6 -1 33 -21 60 -45 27 -24 40 -41 29 -36 -11 4 -49 10
-85 12 -58 5 -63 3 -50 -10 8 -8 60 -27 115 -42 55 -14 116 -37 136 -51 32
-22 59 -31 59 -19 0 2 -19 23 -42 45 -28 27 -34 36 -16 25 26 -16 26 -15 42
16 16 32 16 33 -12 63 -49 53 -58 73 -15 33 l40 -39 22 30 c11 17 21 37 21 46
0 10 9 16 24 16 14 0 28 5 31 10 4 6 11 8 16 4 6 -3 13 3 16 14 6 25 47 44 77
36 18 -4 25 -1 29 15 4 16 13 21 41 21 20 0 36 5 36 10 0 6 -5 10 -11 10 -18
0 -56 34 -52 46 2 6 -5 14 -17 17 -18 5 -20 10 -14 49 7 42 7 43 -13 26 -24
-22 -37 -23 -54 -1 -8 9 -38 32 -68 51 -65 42 -103 76 -289 260 -80 78 -147
140 -151 137 -3 -4 17 -28 45 -53 27 -26 71 -67 97 -91 26 -24 46 -45 44 -48
-21 -21 -257 196 -414 380 -41 48 -78 87 -82 87 -4 0 -27 -23 -50 -50 -37 -44
-41 -53 -30 -68 11 -14 11 -15 -1 -4 -12 10 -24 2 -74 -45 l-59 -58 53 65 c29
36 81 99 114 140 34 41 115 135 181 210 140 157 195 225 195 238 0 10 41 50
44 42 2 -6 56 36 56 43 0 3 22 29 50 58 36 39 48 60 44 74 -4 14 -3 16 4 7 7
-10 16 -4 37 25 44 58 214 264 253 305 19 20 31 41 28 47 -4 6 -1 9 6 6 7 -2
29 16 48 40 42 54 52 77 24 55 -19 -14 -19 -14 0 8 21 24 31 29 21 10 -11 -22
92 93 163 181 116 145 175 212 303 346 l124 130 -119 -110 c-65 -61 -143 -138
-172 -173 -41 -48 -54 -58 -54 -43 0 12 5 21 11 21 5 0 8 4 5 8 -3 5 20 33 50
63 31 30 83 86 117 124 l61 70 -60 -56 c-32 -30 -68 -62 -79 -69 -20 -15 -20
-15 0 10 22 28 67 79 170 194 39 43 99 110 134 150 35 39 82 91 106 116 23 25
41 50 38 57 -3 8 -11 5 -24 -8 -10 -10 -25 -19 -31 -19 -7 0 23 33 67 74 44
41 78 76 74 80 -3 3 -63 -51 -135 -119z m-419 -305 c-3 -5 -16 -15 -28 -21
-21 -10 -21 -9 2 10 25 23 36 27 26 11z m60 -140 c-16 -16 -33 -30 -39 -30 -9
0 53 59 63 60 3 0 -8 -13 -24 -30z m-195 -353 c0 -2 -18 -21 -40 -42 -22 -21
-40 -35 -40 -31 0 5 17 24 37 42 35 32 43 38 43 31z m-604 -219 c-9 -13 -32
-36 -53 -52 -34 -26 -32 -23 12 22 54 57 63 63 41 30z m249 -184 c-25 -27 -88
-101 -140 -164 -51 -64 -101 -122 -111 -130 -25 -21 189 244 245 302 24 26 46
46 49 44 2 -2 -17 -26 -43 -52z m-327 -276 c-44 -57 -471 -486 -466 -471 3 13
486 513 495 513 3 0 -10 -19 -29 -42z m-870 -416 c40 -52 72 -96 70 -97 -5 -5
-95 109 -151 190 -51 75 -35 57 81 -93z m397 -472 c27 -27 47 -50 44 -50 -3 0
-27 23 -54 50 -27 28 -47 50 -44 50 3 0 27 -22 54 -50z m81 -92 l29 -33 -32
29 c-18 17 -33 31 -33 33 0 8 8 1 36 -29z m-190 -170 l29 -33 -32 29 c-31 28
-38 36 -30 36 2 0 16 -15 33 -32z m414 -3 c13 -14 21 -25 18 -25 -2 0 -15 11
-28 25 -13 14 -21 25 -18 25 2 0 15 -11 28 -25z m353 -152 c57 -54 109 -107
116 -117 13 -19 13 -19 -17 0 -17 11 -65 51 -108 89 -42 39 -91 82 -107 98
-28 25 -29 27 -9 27 13 0 61 -37 125 -97z m-1768 -552 l20 -24 -23 12 c-12 7
-33 9 -45 6 -21 -6 -21 -5 3 14 14 11 25 19 25 18 0 -1 9 -13 20 -26z m-541
-116 c-9 -14 -18 -25 -21 -25 -5 0 5 18 20 38 17 22 18 13 1 -13z m314 -115
c-7 -11 -17 -20 -22 -20 -5 0 -1 9 9 20 10 11 20 20 22 20 2 0 -2 -9 -9 -20z"/>
<path d="M4783 6902 c-643 -387 -1026 -617 -1135 -681 -60 -35 -110 -66 -113
-70 -2 -5 -4 -334 -4 -732 0 -398 -1 -754 -1 -790 -1 -69 5 -80 48 -94 16 -5
22 -3 20 7 -2 8 7 13 24 14 15 1 25 -2 23 -7 -3 -4 -14 -5 -25 -2 -15 4 -19 2
-14 -10 3 -10 -2 -20 -15 -27 -20 -10 -20 -12 -6 -34 14 -21 14 -24 0 -29 -8
-4 -15 -2 -15 3 0 16 -17 11 -24 -7 -4 -10 -4 -14 0 -10 4 4 13 -1 20 -11 8
-10 13 -12 14 -4 0 6 7 12 16 12 8 0 12 -4 9 -10 -3 -5 -1 -10 5 -10 6 0 9 -4
5 -9 -3 -5 4 -13 16 -16 15 -5 18 -10 10 -18 -18 -18 -13 -37 7 -30 16 6 16 5
0 -14 -24 -27 -23 -40 2 -18 25 22 26 45 3 45 -17 1 -17 1 0 14 18 14 24 66 6
66 -5 0 -7 -6 -4 -12 4 -7 -1 -4 -10 7 -9 11 -20 19 -23 18 -4 -1 -7 14 -6 34
2 39 17 62 29 43 4 -6 2 -17 -4 -23 -17 -17 -14 -40 5 -33 14 5 15 4 4 -9 -10
-12 -10 -15 4 -15 14 0 16 28 17 273 0 149 1 294 1 321 0 30 -5 52 -13 57 -10
6 -11 9 -1 9 9 0 12 99 12 460 l0 460 23 14 c12 8 195 119 407 247 527 318
1002 609 1021 626 15 12 25 9 85 -30 197 -127 618 -376 627 -370 5 3 7 2 4 -4
-4 -6 5 -15 18 -21 14 -7 25 -8 25 -4 0 4 12 8 27 9 l28 1 -24 -13 -24 -12 23
-13 c16 -8 20 -9 15 -1 -4 7 -1 19 6 27 10 13 10 17 -2 25 -9 5 -10 9 -2 9 6
0 15 -4 18 -10 3 -5 14 -10 23 -10 10 0 13 3 7 8 -5 4 -10 21 -11 39 0 23 3
30 13 26 11 -4 11 -8 3 -13 -8 -5 -7 -9 4 -13 10 -4 16 -1 16 8 0 8 7 15 15
15 8 0 15 4 15 9 0 12 -29 23 -41 16 -5 -4 -7 0 -4 7 3 8 -38 39 -113 84 -64
38 -255 154 -424 256 l-308 186 -357 -216z m-1189 -1720 c-6 -4 -14 -14 -17
-22 -4 -10 -6 -8 -6 8 -1 15 5 22 17 22 10 0 13 -3 6 -8z m-14 -88 c0 -17 -22
-14 -28 4 -2 7 3 12 12 12 9 0 16 -7 16 -16z"/>
<path d="M6916 6831 c-19 -7 -32 -41 -17 -41 10 0 45 39 40 44 -2 2 -13 0 -23
-3z"/>
<path d="M6719 6703 l-24 -28 28 24 c15 14 27 26 27 28 0 8 -8 1 -31 -24z"/>
<path d="M5902 6200 c-12 -12 -22 -24 -22 -27 0 -4 11 4 25 17 23 22 29 30 22
30 -2 0 -13 -9 -25 -20z"/>
<path d="M6655 6168 c-4 -13 -7 -26 -6 -30 1 -5 -6 -8 -15 -8 -9 0 -14 6 -11
13 2 6 -1 17 -8 24 -9 8 -12 4 -13 -19 0 -21 5 -32 21 -38 21 -8 21 -9 -5 -11
-16 -1 -34 -2 -40 -3 -7 -1 -12 4 -11 10 1 6 -9 16 -22 22 -16 7 -25 8 -25 2
0 -6 7 -10 16 -10 8 0 12 -5 9 -11 -4 -6 -14 -8 -22 -5 -8 4 -11 1 -8 -5 4 -6
13 -8 20 -5 7 2 16 -2 19 -10 4 -9 15 -13 31 -10 14 3 25 0 25 -5 0 -6 -6 -9
-12 -6 -7 2 -21 0 -30 -5 -14 -6 -18 -5 -18 7 0 9 -5 13 -10 10 -8 -5 -7 -11
1 -21 6 -7 15 -12 19 -9 4 3 11 -3 15 -13 4 -9 9 -402 11 -872 2 -470 4 -868
4 -885 0 -16 -1 -97 -2 -178 l-3 -148 -135 -85 c-74 -46 -150 -91 -167 -101
-18 -9 -33 -23 -33 -30 0 -8 -4 -11 -10 -8 -11 7 -71 -25 -65 -34 2 -3 -8 -7
-22 -8 -44 -2 -50 -20 -18 -53 16 -16 26 -32 24 -35 -10 -9 -119 -12 -119 -3
0 5 -5 6 -10 3 -6 -4 -8 -10 -5 -15 3 -5 1 -11 -5 -15 -6 -4 -8 -11 -5 -16 4
-5 0 -9 -8 -9 -8 0 -22 -10 -30 -22 l-16 -23 6 23 c4 16 1 22 -11 22 -9 0 -16
-5 -16 -10 0 -6 -10 -8 -23 -5 -17 5 -47 -9 -115 -54 -51 -33 -92 -65 -92 -70
0 -9 27 -41 35 -41 12 0 11 32 -2 46 -15 15 -15 16 3 12 10 -2 19 -8 20 -13 0
-6 4 -18 8 -27 4 -10 6 -23 3 -30 -5 -15 10 -48 22 -48 5 0 31 15 57 33 27 17
71 43 98 57 27 14 51 33 54 43 2 9 9 17 14 17 5 0 6 5 3 10 -4 6 -11 8 -16 5
-22 -14 -6 15 17 30 15 9 24 12 20 7 -4 -6 3 -16 14 -22 17 -9 29 -5 75 26 41
27 53 40 45 48 -13 17 12 51 32 44 8 -4 20 2 27 13 6 11 16 17 22 14 5 -4 14
7 20 24 6 17 16 31 21 31 7 0 7 -5 0 -13 -7 -8 -8 -24 -4 -40 l7 -27 86 50
c105 61 121 77 95 96 -12 8 -16 19 -12 30 6 16 8 16 21 -2 8 -10 15 -25 15
-31 0 -7 3 -13 6 -13 6 0 74 38 167 92 l67 40 0 1095 c0 873 -3 1093 -12 1087
-10 -6 -10 -5 -1 7 17 21 8 88 -14 104 -15 12 -19 11 -24 -3 -5 -13 -7 -12
-10 7 -5 32 -25 37 -34 9z m80 -888 c3 -5 -1 -10 -9 -10 -9 0 -16 5 -16 10 0
6 4 10 9 10 6 0 13 -4 16 -10z m-85 -796 c0 -8 -4 -12 -10 -9 -5 3 -10 10 -10
16 0 5 5 9 10 9 6 0 10 -7 10 -16z m8 -116 c-3 -7 -15 -15 -28 -16 -21 -3 -22
-2 -11 12 16 19 44 21 39 4z m-28 -148 c0 -5 -7 -10 -16 -10 -8 0 -12 5 -9 10
3 6 10 10 16 10 5 0 9 -4 9 -10z m80 -46 c0 -8 -4 -12 -10 -9 -5 3 -10 10 -10
16 0 5 5 9 10 9 6 0 10 -7 10 -16z m-44 -69 c-3 -8 3 -19 12 -25 15 -9 15 -9
-3 -7 -11 1 -21 7 -21 12 -2 13 7 35 13 35 3 0 3 -7 -1 -15z m-106 -325 c0 -5
-7 -10 -16 -10 -8 0 -12 5 -9 10 3 6 10 10 16 10 5 0 9 -4 9 -10z m-400 -210
c0 -5 -9 -10 -21 -10 -11 0 -17 5 -14 10 3 6 13 10 21 10 8 0 14 -4 14 -10z
m-70 -21 c0 -18 -2 -20 -15 -9 -13 11 -13 15 -3 21 18 12 18 12 18 -12z m-227
-125 c9 -9 -4 -35 -14 -28 -5 3 -9 12 -9 20 0 14 12 19 23 8z"/>
<path d="M6471 6096 c2 -2 15 -9 29 -15 24 -11 24 -11 6 3 -16 13 -49 24 -35
12z"/>
<path d="M5634 6026 c-10 -25 0 -38 13 -17 8 13 9 22 3 26 -6 4 -13 -1 -16 -9z"/>
<path d="M5225 5620 c-3 -5 1 -10 9 -10 9 0 16 5 16 10 0 6 -4 10 -9 10 -6 0
-13 -4 -16 -10z"/>
<path d="M5205 5524 c-26 -23 -31 -24 -41 -9 -8 10 -14 12 -19 6 -3 -6 -1 -11
4 -11 25 0 7 -29 -50 -85 -33 -33 -65 -68 -70 -78 -6 -10 27 18 73 63 46 45
99 94 118 110 19 17 31 30 25 30 -5 0 -23 -12 -40 -26z"/>
<path d="M4993 5401 c-7 -10 -9 -22 -6 -25 13 -12 21 -5 21 19 0 30 0 30 -15
6z"/>
<path d="M4455 5211 c-6 -11 9 -23 19 -14 9 9 7 23 -3 23 -6 0 -12 -4 -16 -9z"/>
<path d="M5348 4845 c22 -27 64 -72 93 -100 69 -65 35 -23 -60 74 -52 54 -62
61 -33 26z"/>
<path d="M4247 4666 c-3 -8 -3 -16 0 -19 9 -10 33 5 33 19 0 18 -26 18 -33 0z"/>
<path d="M4312 4607 c-12 -13 -22 -27 -22 -31 0 -10 59 36 59 47 2 14 -16 7
-37 -16z"/>
<path d="M4193 4570 c-8 -12 -9 -21 -3 -25 6 -3 10 1 10 9 0 9 5 16 10 16 6 0
10 5 10 10 0 16 -14 11 -27 -10z"/>
<path d="M3549 4517 c-21 -17 -32 -47 -15 -47 13 0 43 46 35 54 -2 2 -11 -1
-20 -7z"/>
<path d="M4080 4401 c0 -11 5 -23 10 -26 6 -3 10 1 10 9 0 9 5 16 10 16 6 0
10 5 10 10 0 6 -9 10 -20 10 -13 0 -20 -7 -20 -19z"/>
<path d="M3555 4380 c4 -6 1 -18 -6 -26 -10 -12 -14 -12 -20 -2 -6 9 -9 6 -9
-9 0 -12 5 -25 10 -28 10 -6 40 17 41 32 0 4 7 7 15 5 21 -4 17 16 -5 28 -25
13 -34 13 -26 0z"/>
<path d="M3571 4326 c-6 -7 -7 -17 -3 -21 4 -5 2 -5 -4 -2 -7 4 -18 -1 -25
-10 -8 -9 -9 -14 -3 -10 7 4 15 0 18 -9 9 -22 8 -24 -9 -24 -10 0 -15 -11 -15
-35 0 -24 5 -35 15 -35 8 0 15 5 15 11 0 8 4 8 14 0 11 -9 15 -9 18 1 3 9 9 8
23 -5 13 -13 14 -18 4 -17 -8 1 -31 2 -51 1 -30 -1 -36 -5 -35 -21 1 -11 7
-22 15 -25 7 -3 10 -10 6 -16 -4 -8 -3 -9 4 -5 11 6 16 -5 13 -26 0 -4 12 0
27 8 15 7 32 14 38 14 17 0 25 28 11 33 -8 3 -5 10 8 21 17 14 18 17 5 27 -11
8 -12 12 -2 16 18 7 16 44 -2 37 -8 -3 -17 -11 -19 -17 -2 -7 -3 0 -1 14 3 23
0 25 -28 21 -23 -4 -29 -1 -26 9 3 8 11 13 17 12 16 -4 14 54 -3 60 -8 3 -19
0 -25 -7z m17 -97 c-2 -6 -8 -10 -13 -10 -5 0 -11 4 -13 10 -2 6 4 11 13 11 9
0 15 -5 13 -11z m-13 -79 c3 -5 0 -10 -7 -10 -7 -1 3 -9 22 -20 23 -13 29 -19
17 -20 -21 0 -50 26 -53 46 -3 16 12 19 21 4z"/>
<path d="M4031 4287 c-19 -28 -60 -79 -91 -112 -93 -99 -220 -253 -220 -268 0
-7 112 121 246 280 54 64 116 153 107 153 -5 0 -24 -24 -42 -53z"/>
<path d="M4067 4275 c-21 -25 -34 -45 -30 -45 9 0 83 76 83 85 0 15 -20 0 -53
-40z"/>
<path d="M3530 4036 c0 -31 6 -34 13 -6 3 11 1 23 -4 26 -5 3 -9 -6 -9 -20z"/>
<path d="M4366 3731 c-4 -7 -5 -15 -2 -18 9 -9 19 4 14 18 -4 11 -6 11 -12 0z"/>
<path d="M3926 3432 l-19 -27 26 24 c28 26 32 31 20 31 -5 0 -17 -13 -27 -28z"/>
<path d="M3836 3431 c-10 -11 -16 -25 -14 -32 2 -7 12 0 22 16 21 32 16 43 -8
16z"/>
<path d="M3950 3403 c-19 -25 -29 -43 -23 -40 19 12 75 87 66 87 -5 0 -25 -21
-43 -47z"/>
<path d="M4489 3416 c0 -1 -2 -9 -4 -18 -4 -21 6 -23 24 -5 7 7 6 0 -3 -18 -9
-16 -16 -38 -16 -48 0 -26 29 -33 48 -12 16 17 16 17 -6 12 -23 -5 -23 -5 -7
20 10 14 12 22 6 19 -6 -4 -11 -2 -11 3 0 6 6 11 14 11 8 0 22 3 31 7 14 5 16
2 11 -15 -8 -23 12 -41 24 -22 4 6 10 11 14 11 33 -5 22 15 -24 39 -17 9 -93
21 -101 16z"/>
<path d="M4447 3389 c6 -22 23 -26 23 -5 0 8 -6 16 -14 19 -10 4 -12 0 -9 -14z"/>
<path d="M3400 3382 c0 -7 -19 -34 -43 -60 -72 -80 -82 -93 -66 -87 8 3 41 35
73 71 43 49 56 68 47 77 -8 8 -11 8 -11 -1z"/>
<path d="M3770 3345 c-18 -19 -31 -37 -28 -40 5 -5 78 61 78 70 0 13 -20 1
-50 -30z"/>
<path d="M5620 3355 c-7 -8 -20 -15 -30 -15 -29 0 -40 -22 -24 -45 8 -11 18
-20 22 -19 27 3 43 -10 38 -32 -7 -25 0 -29 23 -15 8 5 11 16 7 29 -7 22 7 37
24 27 8 -5 7 -11 0 -21 -23 -27 -5 -34 35 -13 22 12 44 25 49 30 14 12 -13 39
-40 39 -13 0 -25 8 -29 19 -3 10 -16 22 -28 25 -31 8 -33 8 -47 -9z m13 -32
c-7 -3 -13 -11 -13 -19 0 -8 -4 -14 -10 -14 -5 0 -10 5 -10 11 0 14 33 40 40
32 3 -3 -1 -8 -7 -10z"/>
<path d="M3871 3310 c-19 -16 -32 -32 -30 -35 3 -2 21 11 39 30 41 42 37 45
-9 5z"/>
<path d="M3394 3298 l-29 -33 33 29 c30 28 37 36 29 36 -2 0 -16 -15 -33 -32z"/>
<path d="M4692 3314 c-12 -13 -11 -18 3 -34 13 -14 26 -17 60 -14 48 6 67 -9
35 -26 -16 -8 -20 -8 -20 3 0 8 -7 14 -15 14 -8 0 -15 -5 -15 -10 0 -5 -7 -6
-16 -3 -9 4 -23 1 -30 -5 -11 -9 -14 -6 -14 15 0 14 -4 26 -9 26 -5 0 -7 -10
-4 -22 3 -17 2 -19 -5 -9 -7 9 -11 10 -17 2 -5 -9 -10 -9 -20 -1 -9 7 -15 8
-19 1 -4 -6 6 -18 21 -27 15 -10 51 -32 78 -49 28 -18 65 -40 83 -49 l33 -17
-7 26 c-8 33 4 32 18 -2 9 -23 12 -25 15 -10 3 11 11 16 19 13 8 -3 14 -1 14
3 0 5 -6 12 -12 14 -10 4 -10 6 0 6 6 1 12 6 12 12 0 7 -10 9 -27 5 -16 -4
-23 -3 -17 1 14 10 23 48 15 61 -10 15 -118 82 -124 76 -3 -3 -3 -12 0 -20 3
-8 0 -14 -5 -14 -16 0 -24 18 -12 25 12 7 14 25 3 25 -5 -1 -14 -8 -21 -16z"/>
<path d="M3663 3308 c-15 -19 -23 -48 -15 -48 4 0 13 14 19 30 12 32 11 37 -4
18z"/>
<path d="M5527 3303 c-3 -4 5 -21 18 -37 12 -15 25 -24 28 -19 3 5 -5 22 -18
37 -13 15 -25 23 -28 19z"/>
<path d="M5410 3234 c-46 -30 -87 -59 -90 -63 -3 -5 -20 -12 -37 -16 -18 -3
-33 -11 -33 -17 0 -5 12 -7 28 -3 17 3 40 0 57 -9 16 -8 32 -13 37 -10 4 3 8
2 9 -3 0 -4 2 -17 4 -28 2 -10 -2 -26 -8 -35 -9 -11 -6 -10 13 3 14 9 42 26
62 37 20 11 40 25 43 30 4 6 17 15 28 21 27 11 57 30 76 47 12 12 12 15 0 23
-30 19 -45 9 -40 -28 3 -18 -10 -16 -25 4 -9 13 -9 22 -2 30 7 9 7 13 0 13 -6
0 -13 -4 -17 -10 -3 -5 -12 -7 -21 -3 -11 4 -12 9 -4 18 8 10 7 14 -7 18 -17
4 -17 5 0 6 9 0 17 8 17 16 0 8 -1 15 -2 15 -2 0 -41 -25 -88 -56z m45 -12
c-3 -3 -16 -7 -28 -9 -21 -3 -21 -2 -3 12 17 13 45 11 31 -3z m40 -22 c3 -5
-1 -10 -9 -10 -9 0 -16 5 -16 10 0 6 4 10 9 10 6 0 13 -4 16 -10z m-139 -67
c-10 -10 -19 5 -10 18 6 11 8 11 12 0 2 -7 1 -15 -2 -18z m71 15 c-2 -7 -1
-20 4 -28 5 -12 2 -16 -13 -17 -15 -2 -17 1 -8 12 7 9 8 15 0 20 -15 9 -12 25
6 25 9 0 14 -6 11 -12z"/>
<path d="M3535 3242 c-18 -13 -38 -42 -29 -42 5 0 17 12 27 25 19 26 19 30 2
17z"/>
<path d="M4898 3198 c-9 -23 7 -32 29 -18 16 10 16 11 1 6 -11 -3 -18 1 -20
12 -3 16 -4 16 -10 0z"/>
<path d="M4956 3154 c-3 -8 -2 -22 2 -31 8 -13 10 -13 24 0 11 12 18 13 26 5
17 -17 24 -4 9 14 -19 25 -54 32 -61 12z"/>
<path d="M4860 3095 c0 -9 6 -12 15 -9 8 4 15 7 15 9 0 2 -7 5 -15 9 -9 3 -15
0 -15 -9z"/>
<path d="M5220 3089 c0 -5 9 -9 20 -9 11 0 20 -4 20 -9 0 -5 13 -12 30 -16 16
-4 34 -14 39 -22 9 -17 15 -11 25 28 4 19 1 29 -8 32 -14 6 -40 -15 -31 -25 3
-2 -1 -5 -9 -5 -8 0 -12 6 -9 15 5 11 1 13 -15 7 -12 -3 -22 -3 -22 2 0 5 -9
9 -20 10 -11 1 -20 -2 -20 -8z"/>
<path d="M5215 3033 c-2 -8 0 -11 5 -8 6 4 10 -7 10 -25 0 -21 4 -30 13 -27 6
2 11 10 10 16 -2 6 3 12 10 12 6 1 18 2 26 3 32 3 18 22 -24 32 -35 8 -45 7
-50 -3z"/>
<path d="M4952 3028 c6 -18 25 -21 31 -5 3 8 -3 13 -15 14 -10 1 -18 -3 -16
-9z"/>
<path d="M5050 3033 c-21 -9 -43 -33 -36 -40 3 -4 6 -4 6 0 0 3 12 -1 27 -8
30 -16 34 -13 47 33 6 17 3 22 -11 21 -10 0 -25 -3 -33 -6z"/>
<path d="M5147 2983 c-4 -3 -4 -17 0 -31 3 -15 1 -27 -8 -33 -8 -5 -9 -9 -3
-9 5 0 19 7 30 15 11 8 14 14 6 15 -10 0 -10 3 0 14 11 12 14 12 22 -1 7 -13
10 -13 17 -2 14 22 10 29 -13 25 -13 -2 -28 0 -34 5 -6 5 -14 6 -17 2z"/>
</g>
</svg>
